#define bitmap_width 32
#define bitmap_height 32
static unsigned char bitmap_bits[] = {
   0x00, 0x00, 0x00, 0x00, 0x00, 0x00, 0x00, 0x00, 0x00, 0x00, 0x00, 0x00,
   0x00, 0x00, 0x00, 0x00, 0x00, 0x00, 0xc0, 0x01, 0x00, 0x00, 0xc7, 0x01,
   0xe0, 0x00, 0xc7, 0x01, 0xe0, 0x00, 0x07, 0x00, 0xe0, 0x00, 0x00, 0x00,
   0x00, 0x00, 0x00, 0x00, 0x00, 0x1c, 0x00, 0x00, 0x00, 0x1c, 0x00, 0x00,
   0x00, 0x1c, 0x00, 0x00, 0x40, 0x00, 0x00, 0x0c, 0x00, 0x00, 0x00, 0x1c,
   0x00, 0x00, 0x00, 0x0c, 0x00, 0x00, 0x02, 0x00, 0x80, 0x00, 0x0e, 0x00,
   0x00, 0x00, 0x0e, 0x00, 0x00, 0x10, 0x0e, 0x00, 0x00, 0x00, 0x70, 0x00,
   0x00, 0x00, 0x70, 0x00, 0x00, 0x01, 0x70, 0x00, 0x1c, 0x00, 0x01, 0x00,
   0x1c, 0xe0, 0x00, 0x08, 0x1c, 0xe0, 0x40, 0x00, 0x00, 0xe0, 0x04, 0x00,
   0x00, 0x00, 0x00, 0x00, 0x10, 0x00, 0x00, 0x00, 0x00, 0x08, 0x00, 0x00,
   0x80, 0x00, 0x00, 0x00, 0x00, 0x00, 0x00, 0x00 };
